<svg width="17" height="17" viewBox="0 0 17 17" fill="none" xmlns="http://www.w3.org/2000/svg">
<path d="M16.6667 8.5332C16.6667 7.97039 16.6111 7.38943 16.5185 6.84478H8.49773V10.0582H13.0916C12.9064 11.0931 12.2951 12.0008 11.3874 12.5818L14.1289 14.6696C15.7405 13.199 16.6667 11.0567 16.6667 8.5332Z" fill="#4280EF"/>
<path d="M8.49773 16.6667C10.7947 16.6667 12.7211 15.9223 14.1289 14.6515L11.3874 12.5818C10.628 13.0901 9.6462 13.3806 8.49773 13.3806C6.27489 13.3806 4.404 11.91 3.71863 9.94929L0.903029 12.0734C2.34787 14.8875 5.27461 16.6667 8.49773 16.6667Z" fill="#34A353"/>
<path d="M3.71862 9.93114C3.36668 8.8963 3.36668 7.77068 3.71862 6.73584L0.903029 4.59355C-0.30101 6.95371 -0.30101 9.73143 0.903029 12.0734L3.71862 9.93114Z" fill="#F6B704"/>
<path d="M8.49773 3.30454C9.70177 3.28638 10.8873 3.74026 11.7579 4.55724L14.1845 2.16077C12.647 0.744674 10.6094 -0.0178382 8.49773 0.000316858C5.27461 0.000316858 2.34787 1.77951 0.903029 4.59355L3.71862 6.73584C4.404 4.75694 6.27489 3.30454 8.49773 3.30454Z" fill="#E54335"/>
</svg>
